<?xml version="1.0" encoding="utf-8"?>
<!-- Generator: Adobe Illustrator 21.0.0, SVG Export Plug-In . SVG Version: 6.00 Build 0)  -->
<svg version="1.0" xmlns="http://www.w3.org/2000/svg" xmlns:xlink="http://www.w3.org/1999/xlink" x="0px" y="0px"
	 viewBox="0 0 400 400" style="enable-background:new 0 0 400 400;" xml:space="preserve">
<style type="text/css">
	.st0{fill:#DE325E;}
	.st1{fill:#FFFFFF;}
	.st2{fill:#D8284B;}
</style>
<rect x="0" y="0" class="st0" width="400" height="400"/>
<path class="st1" d="M200,54.4c-80.9,0-146.5,65.6-146.5,146.5S119.1,347.4,200,347.4s146.5-65.6,146.5-146.5S280.9,54.4,200,54.4z
	 M200,341.9c-77.9,0-141-63.1-141-141s63.1-141,141-141s141,63.1,141,141S277.9,341.9,200,341.9z"/>
<path class="st2" d="M94,191.2c0-7.7,6.3-14,14-14h18.2c7.7,0,14,6.3,14,14v0c0,7.7-6.3,14-14,14H108C100.2,205.2,94,198.9,94,191.2
	L94,191.2z M94.5,223.4c1.7-5.8,7.1-10.1,13.4-10.1h18.2c6.4,0,11.7,4.3,13.4,10.1H94.5z M138.5,209.1c5-3.7,8.4-9.4,9-15.9
	l16.1-7.2h122.9c20.7,0,37.5,16.7,37.7,37.3H147.3C146.3,217.5,143.1,212.5,138.5,209.1z"/>
<path class="st1" d="M290.4,102.7l6.9,19.2h10.1C302.4,115,296.7,108.5,290.4,102.7z"/>
<path class="st1" d="M89.6,250.2V274c2.9,4.3,6,8.4,9.3,12.3v-36.1H89.6z"/>
<path class="st1" d="M300.8,250.2v36.4c3.3-3.9,6.4-7.9,9.3-12.2v-24.2H300.8z"/>
<path class="st1" d="M328.9,232.2H71.1c0.8,3.2,1.7,6.4,2.8,9.6h252.3C327.2,238.7,328.1,235.5,328.9,232.2z"/>
<path class="st1" d="M108,205.2h18.2c7.7,0,14-6.3,14-14v0c0-7.7-6.3-14-14-14H108c-7.7,0-14,6.3-14,14v0
	C94,198.9,100.2,205.2,108,205.2z"/>
<path class="st1" d="M286.4,186.1H163.5l-16.1,7.2c-0.6,6.5-4,12.2-9,15.9c4.6,3.3,7.8,8.4,8.8,14.3h176.9
	C323.9,202.7,307.1,186.1,286.4,186.1z"/>
<path class="st1" d="M126.2,213.3H108c-6.4,0-11.7,4.3-13.4,10.1h45C137.9,217.5,132.5,213.3,126.2,213.3z"/>
<path class="st1" d="M76,152.3c0.1-0.2,0.2-0.4,0.3-0.7C76.1,151.9,76,152.1,76,152.3z"/>
<path class="st1" d="M75.8,223.4h9.3v-69.7c0-2.6-2.1-4.6-4.7-4.6c-1.9,0-3.5,1.1-4.2,2.6c-0.1,0.2-0.2,0.4-0.3,0.7
	c-0.1,0.4-0.2,0.8-0.2,1.3V223.4z"/>
<path class="st1" d="M279.6,93.6l-12,32.5l-6-9.6H232V76.2c0-2.9-2.3-5.7-5.1-6.3c-8.7-1.8-17.7-2.7-26.9-2.7
	c-9.1,0-18,0.9-26.7,2.7c-3,0.6-5.1,3.2-5.1,6.3v22.6l-40.1-0.3l-11,25.1l-7.3-21.1c-2.4,2.2-4.7,4.5-6.9,6.9l13.9,39.1l16.7-39.8
	h34.7v22.7c0,4.9,3.9,8.8,8.8,8.8h9.4v13.6h8.7v23.7h9.4v-23.7h9.4v-13.6h9.2c4.9,0,8.8-3.9,8.8-8.8v-5.5h25.4l13.3,19.2l15.9-45.8
	C284.3,97.3,282,95.4,279.6,93.6z M213.9,104.3H205v8.9h-10v-8.9H186v-10h8.9v-8.9h10v8.9h8.9V104.3z"/>
</svg>
