<?xml version="1.0" encoding="utf-8"?>
<!-- Generator: Adobe Illustrator 23.0.3, SVG Export Plug-In . SVG Version: 6.00 Build 0)  -->
<svg version="1.0" xmlns="http://www.w3.org/2000/svg" xmlns:xlink="http://www.w3.org/1999/xlink" x="0px" y="0px"
	 viewBox="0 0 400 400" style="enable-background:new 0 0 400 400;" xml:space="preserve">
<style type="text/css">
	.st0{fill:#DE325E;}
	.st1{fill:none;stroke:#FFFFFF;stroke-width:7;stroke-miterlimit:10;}
	.st2{fill:#FFFFFF;}
</style>
<g id="2">
	<rect x="-1" y="-1" class="st0" width="402" height="402"/>
</g>
<g id="3">
	<circle class="st1" cx="200" cy="201" r="143"/>
</g>
<g id="4">
	<polygon class="st2" points="330,233 70,233 74,243 327,243 	"/>
</g>
<g id="5">
	<polygon class="st2" points="99,252 90,252 90,278 99,287 	"/>
</g>
<g id="6">
	<path class="st2" d="M125.5,178h-18c-7.5,0-13.5,6-13.5,13.5v0c0,7.5,6,13.5,13.5,13.5h18c7.5,0,13.5-6,13.5-13.5v0
		C139,184,133,178,125.5,178z"/>
	<polygon class="st2" points="301,252 310,252 310,278 301,287 	"/>
	<polygon class="st2" points="131,215 103,215 94,224 141,224 	"/>
	<rect x="76" y="154" class="st2" width="8" height="70"/>
	<path class="st2" d="M80.2,150h-0.4c-2.1,0-3.8,1.7-3.8,3.8l0,0c0,2.1,1.7,3.8,3.8,3.8h0.4c2.1,0,3.8-1.7,3.8-3.8l0,0
		C84,151.7,82.3,150,80.2,150z"/>
</g>
<g id="7">
	<path class="st2" d="M324,224c-0.4-3.1-1.3-7.9-3-12c-1.1-2.7-2.7-6.3-6-10c-1.3-1.5-3.9-3.3-9-7c-3.7-2.7-5.7-3.9-8-5
		c-2-1-3.8-1.6-5-2c-5,0-10,0-15,0c0,13,4.3,20.7,4,26c-0.1,2.3-2,10,2,10c0.8,0-1,0,2,0c2.5,0,6.3,0,11,0c7.8,0,11,0,15,0
		C314.8,224,319,224,324,224z"/>
	<rect x="163" y="188" class="st2" width="122" height="36"/>
	<path class="st2" d="M163,188c-4,2-6.4,2.7-9,4c-2.5,1.2-4.8,2.2-7,3c0.2,0.9,0.4,3.4,0,5c-0.2,0.8-0.6,1.2-3,4
		c-1.1,1.3-2.8,3.1-5,5c1.6,1.8,4,3.1,5,4c2.3,2,2.2,2.4,3,4c0.8,1.6,1,3.5,1,4c0.1,0.8,0,2.5,0,3c4.3,0,10.7,0,15,0
		c0-10.7,0-22.3,0-33C163,190,163,189,163,188z"/>
</g>
<g id="8">
	<path class="st2" d="M168,99c-14,0-25,0-40,0c-3.3,8.3-7.2,17.2-10.5,25.5c-2.7-7.3-4.8-15.2-7.5-22.5c-2.3,2.3-5.2,5.2-7.5,7.5
		c4.7,13.3,9.3,28.2,14,41.5c5.5-13,12.8-29,17.5-42c13,0,21,0,34,0C168,106,168,102,168,99z"/>
</g>
<g id="9">
	<path class="st2" d="M289,101c3,7.3,6,14.7,9,22c3.7,0,7.3,0,11,0c-2.6-4.2-6.2-9.1-11-14C294.9,105.8,291.8,103.2,289,101z"/>
	<path class="st2" d="M232,118c0,3,0,6,0,9c8.7,0,16.3,0,25,0c4,6.7,9,14.3,13,21c5.7-15.7,11.3-32.3,17-48c-2.3-2-5.2-5-7.5-7
		c-3.7,11-7.8,22-11.5,33c-2.7-3-3.3-5-6-8C252.3,118,241.7,118,232,118z"/>
	<path class="st2" d="M168,135c0-15,0-29,0-60c0-0.7-0.1-2.3,1-3c6-4,19-5,30-5c2,0,5.6,0,11,0c5,0,22,2,22,6.6c0,2.4,0,41.4,0,60.4
		c0,3-4.6,7-9,7c-8,0-34,0-44,0c-2,0-4,0-7-1C169.9,139.3,168,135.8,168,135z"/>
</g>
<g id="10">
	<rect x="187" y="141" class="st2" width="26" height="14"/>
	<rect x="196" y="155" class="st2" width="8" height="23"/>
	<path class="st0" d="M186,95c0,3.3,0,6.7,0,10c3,0,6,0,9,0c0,3,0,6,0,9c3,0,6,0,9,0c0-3.3,0-6.7,0-10c3,0,6,0,9,0c0-3,0-6,0-9
		c-3,0-6,0-9,0c0-3,0-6,0-9c-3,0-6,0-9,0c0,5.9,0,9,0,9l0,0C195,95,191.9,95,186,95z"/>
</g>
</svg>
